<svg width="16" height="16" viewBox="0 0 16 16" fill="none" xmlns="http://www.w3.org/2000/svg">
<path d="M14.2666 5.91164C13.8312 4.47499 12.9583 3.22135 11.7774 2.33668C10.5966 1.45201 9.17061 0.983427 7.71112 1.00045C6.25163 1.01747 4.83633 1.51918 3.67517 2.43117C2.514 3.34315 1.66881 4.61683 1.26498 6.06326C0.861146 7.5097 0.920178 9.05185 1.43332 10.461C1.94646 11.8701 2.88637 13.0711 4.11364 13.8858C5.3409 14.7006 6.79015 15.0857 8.2464 14.984C9.70265 14.8823 11.0883 14.2993 12.1979 13.3214M14.2666 5.91164L9.48485 5.375M14.2666 5.91164L15 1.00045" stroke="#3F3C3C" stroke-width="2"/>
</svg>
