<svg width="45" height="45" viewBox="0 0 45 45" fill="none" xmlns="http://www.w3.org/2000/svg">
<path d="M17.7825 21.9653V26.0393C17.7825 26.3025 17.8862 26.555 18.0711 26.7421L25.5061 34.2678C26.1343 34.9036 27.2175 34.4588 27.2175 33.5649V21.9653C27.2175 21.6994 27.3233 21.4445 27.5117 21.2569L35.7058 13.0931C35.8941 12.9055 36 12.6506 36 12.3847V10C36 9.44772 35.5523 9 35 9H10C9.44772 9 9 9.44771 9 10V12.3847C9 12.6506 9.10587 12.9055 9.29421 13.0931L17.4883 21.2569C17.6767 21.4445 17.7825 21.6994 17.7825 21.9653Z" stroke="black" stroke-width="2"/>
</svg>
