<svg width="32" height="32" viewBox="0 0 32 32" fill="none" xmlns="http://www.w3.org/2000/svg">
<path d="M19.231 10H20.9848C21.2949 10 21.5923 10.154 21.8116 10.4281C22.0308 10.7022 22.154 11.0739 22.154 11.4615V13.6538" stroke="black" stroke-opacity="0.5" stroke-width="2" stroke-linecap="round" stroke-linejoin="round"/>
<path d="M22.1538 18.769L22.1538 20.9614C22.1538 21.349 22.0306 21.7207 21.8113 21.9948C21.5921 22.2689 21.2947 22.4229 20.9846 22.4229L19.2307 22.4229" stroke="black" stroke-opacity="0.5" stroke-width="2" stroke-linecap="round" stroke-linejoin="round"/>
<path d="M9 13.6538L9 11.4615C9 11.0739 9.12319 10.7021 9.34246 10.428C9.56173 10.1539 9.85913 9.99996 10.1692 9.99996L11.9231 9.99996" stroke="black" stroke-opacity="0.5" stroke-width="2" stroke-linecap="round" stroke-linejoin="round"/>
<path d="M11.9229 22.4229L10.169 22.4229C9.85891 22.4229 9.56151 22.2689 9.34223 21.9948C9.12296 21.7207 8.99977 21.3489 8.99977 20.9613L8.99977 18.769" stroke="black" stroke-opacity="0.5" stroke-width="2" stroke-linecap="round" stroke-linejoin="round"/>
</svg>
