<svg width="31" height="31" viewBox="0 0 31 31" fill="none" xmlns="http://www.w3.org/2000/svg">
<path d="M15.5 9.875C14.3875 9.875 13.2999 10.2049 12.3749 10.823C11.4499 11.4411 10.7289 12.3196 10.3032 13.3474C9.87744 14.3752 9.76604 15.5062 9.98309 16.5974C10.2001 17.6885 10.7359 18.6908 11.5225 19.4775C12.3092 20.2641 13.3115 20.7999 14.4026 21.0169C15.4938 21.234 16.6248 21.1226 17.6526 20.6968C18.6804 20.2711 19.5589 19.5501 20.177 18.6251C20.7951 17.7001 21.125 16.6125 21.125 15.5C21.1235 14.0086 20.5304 12.5787 19.4758 11.5242C18.4213 10.4696 16.9914 9.87649 15.5 9.875ZM15.5 19.25C14.7583 19.25 14.0333 19.0301 13.4166 18.618C12.7999 18.206 12.3193 17.6203 12.0355 16.9351C11.7516 16.2498 11.6774 15.4958 11.8221 14.7684C11.9668 14.041 12.3239 13.3728 12.8484 12.8483C13.3728 12.3239 14.041 11.9667 14.7684 11.8221C15.4958 11.6774 16.2498 11.7516 16.9351 12.0355C17.6203 12.3193 18.206 12.7999 18.618 13.4166C19.0301 14.0333 19.25 14.7583 19.25 15.5C19.25 16.4946 18.8549 17.4484 18.1517 18.1516C17.4484 18.8549 16.4946 19.25 15.5 19.25Z" fill="black"/>
<path d="M25.5566 12.3603L24.2684 12.0387C24.2409 12.0267 24.2164 12.0088 24.1964 11.9863C24.1765 11.9638 24.1617 11.9372 24.1531 11.9084C24.1413 11.8834 24.1351 11.856 24.1351 11.8283C24.1351 11.8006 24.1413 11.7732 24.1531 11.7481L24.8366 10.6091C25.1584 10.0704 25.2909 9.43962 25.2129 8.81702C25.1349 8.19442 24.851 7.61577 24.4062 7.17313L23.825 6.59188C23.3816 6.14819 22.8025 5.86548 22.18 5.7887C21.5574 5.71192 20.927 5.84547 20.3891 6.16813L19.25 6.85156C19.2221 6.86276 19.1921 6.86764 19.1621 6.86585C19.1321 6.86407 19.1029 6.85567 19.0766 6.84125C19.0501 6.83255 19.0259 6.81825 19.0055 6.79932C18.9851 6.78039 18.9691 6.75728 18.9584 6.73156L18.6369 5.4425C18.4848 4.83444 18.1339 4.29462 17.64 3.90873C17.1461 3.52283 16.5374 3.31299 15.9106 3.3125H15.0894C14.462 3.31241 13.8526 3.52211 13.3581 3.90823C12.8636 4.29436 12.5124 4.83474 12.3603 5.44344L12.0387 6.73156C12.0267 6.75908 12.0088 6.78365 11.9863 6.80356C11.9638 6.82347 11.9372 6.83825 11.9084 6.84687C11.884 6.85918 11.8571 6.86597 11.8297 6.86678C11.8024 6.86759 11.7751 6.8624 11.75 6.85156L10.6109 6.16813C10.0726 5.84524 9.44172 5.71173 8.81873 5.78886C8.19574 5.86599 7.61646 6.14932 7.17313 6.59375L6.59188 7.175C6.14819 7.61844 5.86548 8.19747 5.7887 8.82004C5.71192 9.44262 5.84547 10.073 6.16813 10.6109L6.85156 11.75C6.86295 11.7778 6.86794 11.8079 6.86615 11.8379C6.86437 11.8679 6.85586 11.8972 6.84125 11.9234C6.83255 11.9499 6.81825 11.9741 6.79932 11.9945C6.78039 12.0149 6.75728 12.0309 6.73156 12.0416L5.4425 12.3631C4.83444 12.5152 4.29462 12.8661 3.90873 13.36C3.52283 13.8539 3.31299 14.4626 3.3125 15.0894V15.9106C3.31241 16.538 3.52211 17.1474 3.90823 17.6419C4.29436 18.1364 4.83474 18.4876 5.44344 18.6397L6.73156 18.9612C6.75908 18.9733 6.78365 18.9912 6.80356 19.0137C6.82347 19.0362 6.83825 19.0628 6.84687 19.0916C6.85918 19.116 6.86597 19.1429 6.86678 19.1703C6.86759 19.1976 6.8624 19.2249 6.85156 19.25L6.16813 20.3891C5.84524 20.9274 5.71173 21.5583 5.78886 22.1813C5.86599 22.8043 6.14932 23.3835 6.59375 23.8269L7.175 24.4081C7.61844 24.8518 8.19747 25.1345 8.82004 25.2113C9.44262 25.2881 10.073 25.1545 10.6109 24.8319L11.75 24.1484C11.7779 24.1372 11.8079 24.1324 11.8379 24.1341C11.8679 24.1359 11.8971 24.1443 11.9234 24.1588C11.9499 24.1674 11.9741 24.1817 11.9945 24.2007C12.0149 24.2196 12.0309 24.2427 12.0416 24.2684L12.3631 25.5575C12.5152 26.1656 12.8661 26.7054 13.36 27.0913C13.8539 27.4772 14.4626 27.687 15.0894 27.6875H15.9106C16.538 27.6876 17.1474 27.4779 17.6419 27.0918C18.1364 26.7056 18.4876 26.1653 18.6397 25.5566L18.9612 24.2684C18.9734 24.2408 18.9915 24.2162 19.0141 24.1963C19.0368 24.1764 19.0635 24.1616 19.0925 24.1531C19.1176 24.142 19.1447 24.1363 19.1722 24.1363C19.1996 24.1363 19.2268 24.142 19.2519 24.1531L20.3909 24.8366C20.9289 25.1592 21.5593 25.2928 22.1818 25.216C22.8044 25.1392 23.3834 24.8565 23.8269 24.4128L24.4081 23.8316C24.8518 23.3881 25.1345 22.8091 25.2113 22.1865C25.2881 21.5639 25.1545 20.9336 24.8319 20.3956L24.1484 19.25C24.137 19.2222 24.1321 19.1921 24.1338 19.1621C24.1356 19.1321 24.1441 19.1029 24.1588 19.0766C24.1674 19.0501 24.1817 19.0259 24.2007 19.0055C24.2196 18.9851 24.2427 18.9691 24.2684 18.9584L25.5575 18.6369C26.1656 18.4848 26.7054 18.1339 27.0913 17.64C27.4772 17.1461 27.687 16.5374 27.6875 15.9106V15.0894C27.6876 14.462 27.4779 13.8526 27.0918 13.3581C26.7056 12.8636 26.1653 12.5124 25.5566 12.3603V12.3603ZM25.8125 15.9106C25.8127 16.1198 25.743 16.323 25.6144 16.488C25.4858 16.6529 25.3057 16.7701 25.1028 16.8209L23.8138 17.1425C23.5038 17.2271 23.2174 17.3815 22.9763 17.5939C22.7353 17.8063 22.5461 18.071 22.4232 18.3678C22.3003 18.6647 22.247 18.9857 22.2674 19.3063C22.2877 19.6269 22.3812 19.9386 22.5406 20.2175L23.2241 21.3566C23.3314 21.5358 23.3758 21.7459 23.3501 21.9533C23.3245 22.1606 23.2303 22.3535 23.0825 22.5013L22.5013 23.0825C22.3535 23.2303 22.1606 23.3245 21.9533 23.3501C21.7459 23.3758 21.5358 23.3314 21.3566 23.2241L20.2166 22.5406C19.9374 22.3774 19.6238 22.282 19.301 22.2623C18.9783 22.2426 18.6554 22.2991 18.3584 22.4272C18.0605 22.5462 17.7949 22.7337 17.5832 22.9746C17.3714 23.2156 17.2195 23.5031 17.1397 23.8138L16.8181 25.1019C16.7675 25.3049 16.6503 25.4852 16.4854 25.614C16.3204 25.7428 16.1171 25.8127 15.9078 25.8125H15.0866C14.8774 25.8127 14.6742 25.743 14.5092 25.6144C14.3443 25.4858 14.2271 25.3057 14.1763 25.1028L13.8547 23.8138C13.7744 23.5019 13.6216 23.2133 13.4087 22.9717C13.1957 22.7301 12.9287 22.5422 12.6294 22.4234C12.3694 22.3138 12.0903 22.2568 11.8081 22.2556C11.4452 22.2537 11.0886 22.351 10.7769 22.5369L9.63781 23.2203C9.45853 23.3277 9.24851 23.372 9.04112 23.3464C8.83373 23.3208 8.64086 23.2265 8.49313 23.0787L7.91188 22.4975C7.76408 22.3498 7.66988 22.1569 7.64423 21.9495C7.61858 21.7421 7.66296 21.5321 7.77031 21.3528L8.45375 20.2128C8.6132 19.934 8.70668 19.6223 8.72703 19.3018C8.74739 18.9812 8.69407 18.6603 8.57117 18.3635C8.44826 18.0668 8.25904 17.8021 8.01801 17.5898C7.77697 17.3775 7.49052 17.2232 7.18062 17.1387L5.8925 16.8172C5.69111 16.7656 5.51256 16.6486 5.38494 16.4845C5.25732 16.3204 5.18787 16.1185 5.1875 15.9106V15.0894C5.1873 14.8802 5.25704 14.677 5.38564 14.512C5.51424 14.3471 5.6943 14.2299 5.89719 14.1791L7.18625 13.8575C7.49618 13.7729 7.78263 13.6185 8.02366 13.4061C8.26469 13.1937 8.4539 12.929 8.57679 12.6322C8.69969 12.3353 8.753 12.0143 8.73264 11.6937C8.71229 11.3731 8.61881 11.0614 8.45937 10.7825L7.77594 9.64344C7.66858 9.46415 7.6242 9.25414 7.64985 9.04675C7.6755 8.83936 7.7697 8.64648 7.9175 8.49875L8.49875 7.9175C8.64596 7.76883 8.83892 7.67402 9.04656 7.64834C9.2542 7.62266 9.46444 7.66761 9.64344 7.77594L10.7834 8.45937C11.0623 8.61882 11.3739 8.71231 11.6945 8.73266C12.015 8.75301 12.336 8.69969 12.6327 8.57679C12.9295 8.45389 13.1942 8.26467 13.4065 8.02363C13.6188 7.7826 13.7731 7.49615 13.8575 7.18625L14.1791 5.89812C14.2297 5.69506 14.3468 5.51479 14.5118 5.38601C14.6768 5.25723 14.8801 5.18735 15.0894 5.1875H15.9106C16.1198 5.1873 16.323 5.25704 16.488 5.38564C16.6529 5.51424 16.7701 5.6943 16.8209 5.89719L17.1425 7.18625C17.2272 7.49607 17.3817 7.7824 17.5941 8.02332C17.8066 8.26424 18.0713 8.45338 18.3681 8.57624C18.6648 8.69911 18.9858 8.75246 19.3063 8.7322C19.6269 8.71195 19.9386 8.61862 20.2175 8.45937L21.3566 7.77594C21.5358 7.66858 21.7459 7.6242 21.9533 7.64985C22.1606 7.6755 22.3535 7.7697 22.5013 7.9175L23.0825 8.49875C23.2303 8.64648 23.3245 8.83936 23.3501 9.04675C23.3758 9.25414 23.3314 9.46415 23.2241 9.64344L22.5406 10.7834C22.3812 11.0623 22.2877 11.3739 22.2673 11.6945C22.247 12.015 22.3003 12.336 22.4232 12.6327C22.5461 12.9295 22.7353 13.1942 22.9764 13.4065C23.2174 13.6188 23.5039 13.7731 23.8138 13.8575L25.1019 14.1791C25.3049 14.2297 25.4852 14.3468 25.614 14.5118C25.7428 14.6768 25.8127 14.8801 25.8125 15.0894V15.9106Z" fill="black"/>
</svg>
