<svg width="45" height="45" viewBox="0 0 45 45" fill="none" xmlns="http://www.w3.org/2000/svg">
<path d="M22.5 31H13.7678C12.7915 31 12 30.2085 12 29.2322V29.2322C12 28.7634 12.1862 28.3138 12.5178 27.9822L13.75 26.75C14.8705 25.6295 15.5 24.1098 15.5 22.5251V20.2016C15.5 18.178 16.4199 16.2641 18 15L19.993 13.4056C20.3135 13.1492 20.5 12.7611 20.5 12.3508V12.3508C20.5 11.6048 21.1048 11 21.8508 11H22.5" stroke="black" stroke-width="2"/>
<path d="M22.5 31H31.2322C32.2085 31 33 30.2085 33 29.2322V29.2322C33 28.7634 32.8138 28.3138 32.4822 27.9822L31.25 26.75C30.1295 25.6295 29.5 24.1098 29.5 22.5251V20.2016C29.5 18.178 28.5801 16.2641 27 15L25.007 13.4056C24.6865 13.1492 24.5 12.7611 24.5 12.3508V12.3508C24.5 11.6048 23.8952 11 23.1492 11H22.5" stroke="black" stroke-width="2"/>
<path d="M19.5 31V32C19.5 33.6569 20.8431 35 22.5 35V35" stroke="black" stroke-width="2"/>
<path d="M25.5 31V32C25.5 33.6569 24.1569 35 22.5 35V35" stroke="black" stroke-width="2"/>
</svg>
