<svg width="31" height="31" viewBox="0 0 31 31" fill="none" xmlns="http://www.w3.org/2000/svg">
<path fill-rule="evenodd" clip-rule="evenodd" d="M26.5366 19.3139C26.628 18.9952 26.7065 18.671 26.7716 18.3419C26.9214 17.5845 27 16.8014 27 16C27 15.1986 26.9214 14.4155 26.7716 13.6581C26.7065 13.329 26.628 13.0048 26.5366 12.6861C26.444 12.3634 26.3384 12.0464 26.2201 11.7355C25.2302 12.0182 24.6062 13.0181 24.8096 14.0462C24.9343 14.6765 25 15.3296 25 16C25 16.6704 24.9343 17.3235 24.8096 17.9538C24.6062 18.9819 25.2302 19.9818 26.2201 20.2645C26.3384 19.9536 26.444 19.6366 26.5366 19.3139ZM25.949 20.9184C25.0489 20.4177 23.9001 20.6836 23.3168 21.5547C22.5862 22.6461 21.6461 23.5862 20.5548 24.3168C19.6836 24.9001 19.4177 26.0489 19.9184 26.949C20.2239 26.8116 20.5226 26.6617 20.814 26.5C21.1061 26.3379 21.3908 26.1639 21.6674 25.9788C22.976 25.1027 24.1027 23.976 24.9788 22.6674C25.1639 22.3908 25.3379 22.1061 25.5 21.814C25.6617 21.5226 25.8116 21.2239 25.949 20.9184ZM19.2645 27.2201C18.9818 26.2302 17.9819 25.6062 16.9538 25.8096C16.3235 25.9343 15.6704 26 15 26C14.3296 26 13.6765 25.9343 13.0462 25.8096C12.0181 25.6062 11.0182 26.2302 10.7355 27.2201C11.0464 27.3384 11.3634 27.444 11.6861 27.5366C12.0048 27.628 12.329 27.7065 12.6581 27.7716C13.4155 27.9214 14.1986 28 15 28C15.8014 28 16.5845 27.9214 17.3419 27.7716C17.671 27.7065 17.9952 27.628 18.3139 27.5366C18.6366 27.444 18.9536 27.3384 19.2645 27.2201ZM10.0816 26.949C10.5823 26.0489 10.3164 24.9001 9.44525 24.3168C8.35388 23.5862 7.41381 22.6461 6.68315 21.5548C6.09991 20.6836 4.95115 20.4177 4.05099 20.9184C4.18845 21.2239 4.33832 21.5226 4.49997 21.814C4.6621 22.1061 4.83606 22.3908 5.02122 22.6674C5.89731 23.976 7.024 25.1027 8.33261 25.9788C8.60918 26.1639 8.89387 26.3379 9.18604 26.5C9.47735 26.6617 9.7761 26.8116 10.0816 26.949ZM3.77986 20.2645C4.76983 19.9818 5.39378 18.9819 5.19038 17.9538C5.06569 17.3235 5 16.6704 5 16C5 15.3296 5.06569 14.6765 5.19038 14.0462C5.39378 13.0181 4.76983 12.0182 3.77986 11.7355C3.66163 12.0464 3.55595 12.3634 3.46345 12.6861C3.37205 13.0048 3.2935 13.329 3.22841 13.6581C3.07856 14.4155 3 15.1986 3 16C3 16.8014 3.07856 17.5845 3.22841 18.3419C3.2935 18.671 3.37205 18.9952 3.46345 19.3139C3.55596 19.6366 3.66163 19.9536 3.77986 20.2645ZM4.05099 11.0816C4.95115 11.5823 6.0999 11.3164 6.68315 10.4453C7.41381 9.35388 8.35387 8.41381 9.44525 7.68315C10.3164 7.09991 10.5823 5.95115 10.0816 5.05099C9.7761 5.18845 9.47735 5.33833 9.18604 5.49997C8.89387 5.6621 8.60918 5.83606 8.33261 6.02122C7.02399 6.89731 5.89731 8.024 5.02121 9.33261C4.83606 9.60918 4.66209 9.89387 4.49997 10.186C4.33832 10.4774 4.18845 10.7761 4.05099 11.0816ZM10.7355 4.77986C11.0182 5.76983 12.0181 6.39378 13.0462 6.19038C13.6765 6.06569 14.3296 6 15 6C15.6704 6 16.3235 6.06569 16.9538 6.19038C17.9819 6.39378 18.9818 5.76983 19.2645 4.77986C18.9536 4.66163 18.6366 4.55595 18.3139 4.46345C17.9952 4.37205 17.671 4.2935 17.3419 4.22841C16.5845 4.07856 15.8014 4 15 4C14.1986 4 13.4155 4.07856 12.6581 4.22841C12.329 4.2935 12.0048 4.37205 11.6861 4.46345C11.3634 4.55596 11.0464 4.66163 10.7355 4.77986ZM19.9184 5.05099C19.4177 5.95115 19.6836 7.0999 20.5547 7.68315C21.6461 8.41381 22.5862 9.35387 23.3168 10.4453C23.9001 11.3164 25.0489 11.5823 25.949 11.0816C25.8116 10.7761 25.6617 10.4774 25.5 10.186C25.3379 9.89387 25.1639 9.60917 24.9788 9.33261C24.1027 8.02399 22.976 6.89731 21.6674 6.02121C21.3908 5.83606 21.1061 5.66209 20.814 5.49997C20.5226 5.33832 20.2239 5.18845 19.9184 5.05099Z" fill="black"/>
<path fill-rule="evenodd" clip-rule="evenodd" d="M9 16.25C9 15.6977 9.44772 15.25 10 15.25H20.5C21.0523 15.25 21.5 15.6977 21.5 16.25C21.5 16.8023 21.0523 17.25 20.5 17.25H10C9.44772 17.25 9 16.8023 9 16.25Z" fill="black"/>
<path fill-rule="evenodd" clip-rule="evenodd" d="M15.25 22.5C14.6977 22.5 14.25 22.0523 14.25 21.5V11C14.25 10.4477 14.6977 10 15.25 10C15.8023 10 16.25 10.4477 16.25 11V21.5C16.25 22.0523 15.8023 22.5 15.25 22.5Z" fill="black"/>
</svg>
